<?xml version="1.0" encoding="iso-8859-1"?>
<!-- Generator: Adobe Illustrator 16.0.0, SVG Export Plug-In . SVG Version: 6.00 Build 0)  -->
<!DOCTYPE svg PUBLIC "-//W3C//DTD SVG 1.1//EN" "http://www.w3.org/Graphics/SVG/1.1/DTD/svg11.dtd">
<svg version="1.1" xmlns="http://www.w3.org/2000/svg" xmlns:xlink="http://www.w3.org/1999/xlink" x="0px" y="0px"
	 width="62.078px" height="62.08px" viewBox="0 0 62.078 62.08" style="enable-background:new 0 0 62.078 62.08;"
	 xml:space="preserve">
<g id="restart_x5F_upstate_x5F_btn">
	<path style="opacity:0.3;fill:#231F20;" d="M61.578,31.042c0,16.869-13.665,30.538-30.542,30.538
		C14.177,61.58,0.5,47.911,0.5,31.042C0.5,14.172,14.177,0.5,31.036,0.5C47.913,0.5,61.578,14.172,61.578,31.042"/>
	<path style="fill-rule:evenodd;clip-rule:evenodd;fill:#FFFFFF;" d="M32.328,8.378h0.078v5.602
		c5.088,0.33,8.743,2.126,11.599,4.921c2.703,2.649,4.929,6.312,5.069,11.362c0.143,5.282-1.849,9.166-4.457,12.054
		c-2.657,2.952-6.253,4.795-11.059,5.383h-2.534c-4.548-0.4-8.435-2.541-10.979-5.301c-2.618-2.836-4.593-6.641-4.528-11.522h4.68
		c0.106,3.556,1.417,6.339,3.298,8.293c2.166,2.253,5.396,4.092,9.834,3.766c5.768-0.419,10.586-5.055,10.979-10.985
		c0.308-4.575-1.491-7.695-3.763-9.826c-2.04-1.917-4.534-3.148-8.141-3.305v5.682c-3.961-2.621-7.808-5.35-11.673-8.054
		C24.612,13.767,28.506,11.106,32.328,8.378"/>
</g>
<g id="Layer_1">
</g>
</svg>
