<?xml version="1.0" encoding="iso-8859-1"?>
<!-- Generator: Adobe Illustrator 16.0.0, SVG Export Plug-In . SVG Version: 6.00 Build 0)  -->
<!DOCTYPE svg PUBLIC "-//W3C//DTD SVG 1.1//EN" "http://www.w3.org/Graphics/SVG/1.1/DTD/svg11.dtd">
<svg version="1.1" xmlns="http://www.w3.org/2000/svg" xmlns:xlink="http://www.w3.org/1999/xlink" x="0px" y="0px"
	 width="45.211px" height="45.217px" viewBox="0 0 45.211 45.217" style="enable-background:new 0 0 45.211 45.217;"
	 xml:space="preserve">
<g id="shuffle_x5F_downstate_x5F_btn">
	<path style="opacity:0.5;fill:#231F20;" d="M44.711,22.61c0,12.211-9.892,22.106-22.108,22.106C10.397,44.717,0.5,34.821,0.5,22.61
		S10.397,0.5,22.603,0.5C34.819,0.5,44.711,10.399,44.711,22.61"/>
	<path style="fill-rule:evenodd;clip-rule:evenodd;fill:#FFFFFF;" d="M34.033,12.17H33.9c-0.197,0.783,0.061,2.018-0.129,2.802
		c-1.635,0.086-3.479-0.115-4.834,0.068c-3.506,0.48-5.372,3.12-7.323,5.621c-0.889,1.138-1.728,2.46-2.743,3.723
		c-0.909,1.129-1.969,2.812-3.142,3.397c-2.044,1.024-5.933-0.149-8.167,0.719c-0.185,1.159-0.27,3.259,0.068,4.316
		c1.263,0.45,2.705,0.26,3.99,0.26c1.521,0,2.949,0.06,4.108-0.129c2.167-0.363,3.792-1.719,5.161-3.333
		c1.925-2.256,3.583-4.878,5.562-7.194c0.688-0.811,1.387-1.754,2.158-2.152c1.254-0.656,3.555-0.363,5.223-0.329
		c0.039,0.919-0.08,2.001,0.066,2.807c1.047-0.753,1.877-1.734,2.807-2.61c0.932-0.879,1.979-1.646,2.748-2.679
		C37.955,15.647,35.801,13.921,34.033,12.17"/>
	<path style="fill-rule:evenodd;clip-rule:evenodd;fill:#FFFFFF;" d="M15.341,15.04c-1.071-0.127-2.362-0.068-3.594-0.068
		c-1.489,0-3.546-0.226-4.246,0.396c0.157,1.023-0.514,3.516,0.13,4.245c0.376,0.428,2.114,0.262,3.072,0.262
		c1.12,0,2.395-0.086,3.336,0c2.256,0.211,2.729,1.459,3.982,2.545c0.957-1.301,1.993-2.529,2.87-3.914
		C19.8,17.074,18.002,15.36,15.341,15.04"/>
	<path style="fill-rule:evenodd;clip-rule:evenodd;fill:#FFFFFF;" d="M33.771,28.174C32.346,28.263,30.432,28.3,29,28.04
		c-1.148-0.531-1.773-1.582-2.619-2.413c-1.037,1.262-2.094,2.52-2.937,3.987c1.833,2.89,5.484,3.801,10.39,3.521
		c0.039,0.903-0.08,1.962,0.066,2.747c0.598-0.246,0.986-0.817,1.436-1.237c1.438-1.346,2.896-2.607,4.184-4.053
		c-1.82-1.815-3.68-3.596-5.619-5.292C33.713,26.11,33.961,27.358,33.771,28.174"/>
</g>
<g id="Layer_1">
</g>
</svg>
