<?xml version="1.0" encoding="iso-8859-1"?>
<!-- Generator: Adobe Illustrator 16.0.0, SVG Export Plug-In . SVG Version: 6.00 Build 0)  -->
<!DOCTYPE svg PUBLIC "-//W3C//DTD SVG 1.1//EN" "http://www.w3.org/Graphics/SVG/1.1/DTD/svg11.dtd">
<svg version="1.1" xmlns="http://www.w3.org/2000/svg" xmlns:xlink="http://www.w3.org/1999/xlink" x="0px" y="0px"
	 width="62.078px" height="62.086px" viewBox="0 0 62.078 62.086" style="enable-background:new 0 0 62.078 62.086;"
	 xml:space="preserve">
<g id="shuffle_x5F_upstate_x5F_btn">
	<path style="opacity:0.3;fill:#231F20;" d="M61.578,31.045c0,16.87-13.665,30.541-30.543,30.541
		C14.173,61.586,0.5,47.915,0.5,31.045C0.5,14.177,14.173,0.5,31.035,0.5C47.913,0.5,61.578,14.177,61.578,31.045"/>
	<path style="fill-rule:evenodd;clip-rule:evenodd;fill:#FFFFFF;" d="M46.73,16.71h-0.185c-0.27,1.076,0.085,2.771-0.176,3.847
		c-2.246,0.119-4.776-0.158-6.637,0.094c-4.813,0.659-7.376,4.283-10.055,7.718c-1.221,1.562-2.373,3.378-3.766,5.112
		c-1.248,1.551-2.704,3.861-4.314,4.666c-2.807,1.406-8.146-0.205-11.214,0.986c-0.254,1.592-0.37,4.475,0.094,5.926
		c1.734,0.619,3.713,0.357,5.479,0.357c2.088,0,4.049,0.082,5.641-0.178c2.976-0.498,5.206-2.359,7.086-4.576
		c2.644-3.098,4.921-6.697,7.636-9.877c0.945-1.113,1.906-2.408,2.965-2.955c1.723-0.901,4.879-0.499,7.17-0.452
		c0.055,1.262-0.11,2.748,0.091,3.854c1.438-1.034,2.579-2.381,3.855-3.584c1.278-1.207,2.715-2.26,3.771-3.678
		C52.114,21.484,49.156,19.115,46.73,16.71"/>
	<path style="fill-rule:evenodd;clip-rule:evenodd;fill:#FFFFFF;" d="M21.064,20.651c-1.471-0.175-3.243-0.094-4.935-0.094
		c-2.044,0-4.869-0.31-5.831,0.544c0.216,1.406-0.706,4.828,0.179,5.829c0.516,0.587,2.902,0.359,4.218,0.359
		c1.537,0,3.289-0.118,4.581,0c3.098,0.291,3.748,2.003,5.467,3.496c1.314-1.787,2.736-3.474,3.94-5.374
		C27.187,23.444,24.717,21.09,21.064,20.651"/>
	<path style="fill-rule:evenodd;clip-rule:evenodd;fill:#FFFFFF;" d="M46.37,38.686c-1.958,0.121-4.585,0.172-6.551-0.184
		c-1.579-0.73-2.435-2.174-3.598-3.314c-1.425,1.732-2.873,3.459-4.032,5.475c2.517,3.969,7.529,5.219,14.266,4.836
		c0.055,1.24-0.11,2.693,0.091,3.771c0.822-0.338,1.356-1.123,1.973-1.699c1.974-1.848,3.978-3.58,5.743-5.564
		c-2.5-2.492-5.053-4.938-7.716-7.266C46.289,35.852,46.631,37.564,46.37,38.686"/>
</g>
<g id="Layer_1">
</g>
</svg>
