<?xml version="1.0" encoding="iso-8859-1"?>
<!-- Generator: Adobe Illustrator 16.0.0, SVG Export Plug-In . SVG Version: 6.00 Build 0)  -->
<!DOCTYPE svg PUBLIC "-//W3C//DTD SVG 1.1//EN" "http://www.w3.org/Graphics/SVG/1.1/DTD/svg11.dtd">
<svg version="1.1" xmlns="http://www.w3.org/2000/svg" xmlns:xlink="http://www.w3.org/1999/xlink" x="0px" y="0px"
	 width="45.211px" height="45.213px" viewBox="0 0 45.211 45.213" style="enable-background:new 0 0 45.211 45.213;"
	 xml:space="preserve">
<g id="restart_x5F_downstate_x5F_btn">
	<path style="opacity:0.5;fill:#231F20;" d="M44.711,22.608c0,12.21-9.892,22.105-22.107,22.105C10.4,44.713,0.5,34.818,0.5,22.608
		C0.5,10.396,10.4,0.5,22.604,0.5C34.819,0.5,44.711,10.396,44.711,22.608"/>
	<path style="fill-rule:evenodd;clip-rule:evenodd;fill:#FFFFFF;" d="M23.544,6.102h0.057v4.08c3.705,0.24,6.367,1.549,8.447,3.584
		c1.969,1.929,3.59,4.597,3.691,8.275c0.105,3.847-1.346,6.675-3.246,8.779c-1.934,2.15-4.553,3.493-8.053,3.921h-1.846
		c-3.312-0.292-6.143-1.851-7.996-3.86c-1.907-2.065-3.345-4.837-3.297-8.393h3.409c0.078,2.59,1.032,4.617,2.402,6.04
		c1.577,1.641,3.93,2.98,7.163,2.742c4.199-0.305,7.709-3.681,7.996-8c0.223-3.332-1.086-5.604-2.742-7.156
		c-1.484-1.396-3.301-2.293-5.928-2.407v4.138c-2.885-1.909-5.687-3.896-8.501-5.866C17.925,10.027,20.761,8.089,23.544,6.102"/>
</g>
<g id="Layer_1">
</g>
</svg>
