<?xml version="1.0" encoding="iso-8859-1"?>
<!-- Generator: Adobe Illustrator 16.0.0, SVG Export Plug-In . SVG Version: 6.00 Build 0)  -->
<!DOCTYPE svg PUBLIC "-//W3C//DTD SVG 1.1//EN" "http://www.w3.org/Graphics/SVG/1.1/DTD/svg11.dtd">
<svg version="1.1" xmlns="http://www.w3.org/2000/svg" xmlns:xlink="http://www.w3.org/1999/xlink" x="0px" y="0px" width="44.66px"
	 height="44.66px" viewBox="0 0 44.66 44.66" style="enable-background:new 0 0 44.66 44.66;" xml:space="preserve">
<g id="flip_x5F_upstate_x5F_btn">
	<circle style="fill-rule:evenodd;clip-rule:evenodd;fill:#F1F1F2;" cx="22.33" cy="22.33" r="21.83"/>
	<path style="fill:#231F20;stroke:#FFFFFF;stroke-width:1.884;stroke-miterlimit:10;" d="M23.246,3.844
		c0.586,0.705,0.366,1.549,0.4,2.348c0.021,0.559,0.02,1.12-0.002,1.682c-0.016,0.375,0.113,0.524,0.504,0.564
		c2.137,0.221,4.166,0.79,6.059,1.853c6.445,3.633,9.314,11.096,6.879,18.073c-0.357,1.024-0.891,1.994-1.412,2.952
		c-0.127,0.23-0.557,0.445-0.812,0.411c-0.199-0.026-0.479-0.44-0.494-0.697c-0.123-1.781-0.492-3.498-1.262-5.104
		c-1.896-3.964-4.998-6.476-9.342-7.642c-0.047,0.326-0.113,0.587-0.117,0.846c-0.01,0.883,0.037,1.768-0.016,2.649
		c-0.019,0.32-0.182,0.785-0.414,0.895c-0.223,0.103-0.694-0.091-0.931-0.295c-2.878-2.461-5.734-4.951-8.597-7.433
		c-0.259-0.225-0.53-0.44-0.783-0.674c-0.522-0.48-0.531-0.794,0.003-1.288C14.935,11.118,16.968,9.26,19,7.405
		c1.208-1.1,2.425-2.191,3.631-3.295c0.062-0.057,0.066-0.177,0.096-0.267H23.246z"/>
	<path style="fill:#231F20;stroke:#FFFFFF;stroke-width:1.884;stroke-miterlimit:10;" d="M22.728,42.644
		c-0.443-0.489-0.433-1.083-0.414-1.69c0.02-0.646,0.018-1.294-0.003-1.939c-0.038-1.063,0.143-0.896-0.937-1.019
		c-2.535-0.295-4.876-1.123-6.916-2.639c-4.959-3.68-7.086-8.594-6.22-14.754c0.27-1.904,0.957-3.652,1.954-5.288
		c0.218-0.361,0.431-0.743,0.938-0.607c0.496,0.136,0.516,0.588,0.534,0.999c0.111,2.521,0.925,4.806,2.346,6.874
		c1.92,2.791,4.537,4.606,7.798,5.5c0.117,0.031,0.239,0.049,0.497,0.1c0-1.133,0-2.198-0.002-3.264
		c0-0.173-0.033-0.348-0.011-0.516c0.084-0.623,0.622-0.889,1.108-0.494c0.971,0.781,1.904,1.609,2.85,2.423
		c2.209,1.906,4.416,3.812,6.623,5.72c0.766,0.666,0.785,0.895,0.023,1.592c-3.154,2.895-6.326,5.775-9.486,8.664
		c-0.109,0.1-0.195,0.227-0.295,0.338H22.728z"/>
</g>
<g id="Layer_1">
</g>
</svg>
