<?xml version="1.0" encoding="iso-8859-1"?>
<!-- Generator: Adobe Illustrator 16.0.0, SVG Export Plug-In . SVG Version: 6.00 Build 0)  -->
<!DOCTYPE svg PUBLIC "-//W3C//DTD SVG 1.1//EN" "http://www.w3.org/Graphics/SVG/1.1/DTD/svg11.dtd">
<svg version="1.1" xmlns="http://www.w3.org/2000/svg" xmlns:xlink="http://www.w3.org/1999/xlink" x="0px" y="0px"
	 width="10.052px" height="34.847px" viewBox="0 0 10.052 34.847" style="enable-background:new 0 0 10.052 34.847;"
	 xml:space="preserve">
<g id="info_x5F_upstate_x5F_icn">
	<path style="fill:#3298CB;" d="M5.367,0c2.091,0,3.777,1.692,3.777,3.784c0,2.093-1.686,3.777-3.777,3.777
		c-2.102,0-3.789-1.685-3.789-3.777C1.578,1.692,3.265,0,5.367,0"/>
	<path style="fill:#3298CB;" d="M7.736,34.008c-1.003,0.734-2.139,0.972-3.378,0.771c-0.849-0.154-1.609-0.515-2.197-1.072
		c-0.624-0.578-1.022-1.306-1.192-2.185c-0.185-0.874-0.078-2.334,0.293-4.349l1.759-9.996c0.174-0.997,0.225-1.676,0.137-2.052
		c-0.08-0.363-0.263-0.697-0.573-0.979c-0.125-0.153-0.478-0.272-1.015-0.365c-0.185-0.039-0.669,0-1.436,0.111L0,13.034l7.18-1.553
		l0.897,0.166l-3.039,17.17c-0.236,1.385-0.228,2.309,0.055,2.837c0.285,0.5,0.74,0.822,1.372,0.933
		c0.488,0.096,0.932-0.053,1.37-0.409c0.425-0.349,0.854-1.18,1.285-2.468l0.932,0.169C9.522,31.912,8.762,33.287,7.736,34.008"/>
</g>
<g id="Layer_1">
</g>
</svg>
