<?xml version="1.0" encoding="iso-8859-1"?>
<!-- Generator: Adobe Illustrator 16.0.0, SVG Export Plug-In . SVG Version: 6.00 Build 0)  -->
<!DOCTYPE svg PUBLIC "-//W3C//DTD SVG 1.1//EN" "http://www.w3.org/Graphics/SVG/1.1/DTD/svg11.dtd">
<svg version="1.1" xmlns="http://www.w3.org/2000/svg" xmlns:xlink="http://www.w3.org/1999/xlink" x="0px" y="0px" width="5.7px"
	 height="19.762px" viewBox="0 0 5.7 19.762" style="enable-background:new 0 0 5.7 19.762;" xml:space="preserve">
<g id="info_x5F_upstate_x5F_icn">
	<path style="fill:#3298CB;" d="M3.043,0c1.186,0,2.142,0.959,2.142,2.146c0,1.187-0.956,2.142-2.142,2.142
		c-1.192,0-2.149-0.956-2.149-2.142C0.895,0.959,1.852,0,3.043,0"/>
	<path style="fill:#3298CB;" d="M4.388,19.286c-0.569,0.416-1.213,0.551-1.916,0.437c-0.481-0.087-0.913-0.292-1.246-0.608
		c-0.354-0.327-0.58-0.74-0.676-1.238c-0.105-0.496-0.044-1.324,0.167-2.467l0.998-5.668c0.099-0.566,0.127-0.951,0.077-1.164
		C1.746,8.371,1.642,8.182,1.466,8.022C1.396,7.935,1.195,7.867,0.891,7.815c-0.105-0.022-0.379,0-0.814,0.062L0,7.392l4.071-0.881
		l0.51,0.094l-1.724,9.738c-0.134,0.785-0.129,1.309,0.031,1.608c0.162,0.283,0.419,0.466,0.778,0.529
		c0.277,0.054,0.528-0.03,0.777-0.232c0.241-0.198,0.483-0.669,0.729-1.399L5.7,16.944C5.4,18.098,4.969,18.877,4.388,19.286"/>
</g>
<g id="Layer_1">
</g>
</svg>
