<?xml version="1.0" encoding="iso-8859-1"?>
<!-- Generator: Adobe Illustrator 16.0.0, SVG Export Plug-In . SVG Version: 6.00 Build 0)  -->
<!DOCTYPE svg PUBLIC "-//W3C//DTD SVG 1.1//EN" "http://www.w3.org/Graphics/SVG/1.1/DTD/svg11.dtd">
<svg version="1.1" xmlns="http://www.w3.org/2000/svg" xmlns:xlink="http://www.w3.org/1999/xlink" x="0px" y="0px"
	 width="52.923px" height="61.426px" viewBox="0 0 52.923 61.426" style="enable-background:new 0 0 52.923 61.426;"
	 xml:space="preserve">
<g id="flag_x5F_selected">
	<path style="fill:#FAAF40;stroke:#F6921E;stroke-width:0.5111;" d="M13.215,59.324L0.342,11.294
		C-0.016,9.972,0.769,8.612,2.1,8.255c1.324-0.357,2.683,0.428,3.04,1.758l12.872,48.029c0.357,1.321-0.428,2.687-1.755,3.043
		C14.927,61.44,13.572,60.649,13.215,59.324z"/>
	<path style="fill:#FAAF40;stroke:#F6921E;stroke-width:0.5111;" d="M50.263,17.144c-0.711-2.645-1.372-5.1-2.079-7.751
		c-0.708-2.646-1.472-5.479-2.382-8.883c-2.473,2.633-5.038,3.761-7.542,4.385c-2.508,0.629-4.961,0.718-7.384,0.69
		c-2.428-0.026-4.824-0.184-7.247-0.207c-2.425-0.025-4.883,0.058-7.39,0.684c-2.501,0.626-5.062,1.752-7.539,4.387
		c0.913,3.403,1.675,6.241,2.381,8.887c0.71,2.648,1.368,5.105,2.076,7.75c0.714,2.648,1.469,5.486,2.382,8.89
		c2.476-2.638,5.036-3.762,7.542-4.387c2.501-0.626,4.957-0.715,7.382-0.694c2.43,0.022,4.824,0.187,7.251,0.216
		c2.419,0.03,4.886-0.065,7.39-0.691c2.5-0.629,5.059-1.753,7.536-4.381C51.733,22.629,50.97,19.793,50.263,17.144z"/>
</g>
<g id="Layer_1">
</g>
</svg>
