<?xml version="1.0" encoding="iso-8859-1"?>
<!-- Generator: Adobe Illustrator 16.0.0, SVG Export Plug-In . SVG Version: 6.00 Build 0)  -->
<!DOCTYPE svg PUBLIC "-//W3C//DTD SVG 1.1//EN" "http://www.w3.org/Graphics/SVG/1.1/DTD/svg11.dtd">
<svg version="1.1" xmlns="http://www.w3.org/2000/svg" xmlns:xlink="http://www.w3.org/1999/xlink" x="0px" y="0px"
	 width="29.511px" height="34.286px" viewBox="0 0 29.511 34.286" style="enable-background:new 0 0 29.511 34.286;"
	 xml:space="preserve">
<g id="flag_x5F_unselected">
	<path style="fill:none;stroke:#929497;stroke-width:0.41;" d="M7.398,33.057L0.253,6.395C0.054,5.661,0.49,4.906,1.229,4.708
		C1.963,4.51,2.718,4.945,2.916,5.684l7.146,26.661c0.198,0.733-0.238,1.491-0.975,1.689C8.349,34.231,7.597,33.792,7.398,33.057z"
		/>
	<path style="fill:none;stroke:#929497;stroke-width:0.41;" d="M27.964,9.642c-0.396-1.468-0.763-2.83-1.154-4.302
		c-0.393-1.47-0.816-3.042-1.322-4.931c-1.372,1.461-2.796,2.087-4.187,2.434c-1.392,0.349-2.754,0.398-4.099,0.384
		c-1.348-0.015-2.678-0.103-4.023-0.115c-1.346-0.014-2.71,0.032-4.101,0.379C7.689,3.838,6.267,4.463,4.893,5.926
		c0.507,1.89,0.93,3.464,1.322,4.933c0.394,1.47,0.758,2.834,1.152,4.302c0.396,1.471,0.815,3.046,1.323,4.936
		c1.374-1.465,2.794-2.089,4.186-2.436c1.388-0.348,2.751-0.397,4.097-0.386c1.349,0.013,2.679,0.104,4.025,0.12
		c1.342,0.017,2.712-0.036,4.102-0.384c1.388-0.35,2.809-0.973,4.184-2.432C28.779,12.687,28.356,11.112,27.964,9.642z"/>
</g>
<g id="Layer_1">
</g>
</svg>
