<?xml version="1.0" encoding="iso-8859-1"?>
<!-- Generator: Adobe Illustrator 16.0.0, SVG Export Plug-In . SVG Version: 6.00 Build 0)  -->
<!DOCTYPE svg PUBLIC "-//W3C//DTD SVG 1.1//EN" "http://www.w3.org/Graphics/SVG/1.1/DTD/svg11.dtd">
<svg version="1.1" xmlns="http://www.w3.org/2000/svg" xmlns:xlink="http://www.w3.org/1999/xlink" x="0px" y="0px"
	 width="28.626px" height="29.331px" viewBox="0 0 28.626 29.331" style="enable-background:new 0 0 28.626 29.331;"
	 xml:space="preserve">
<g id="sound_x5F_upstate_x5F_icn">
	<path style="fill:#3298CB;" d="M13.14,3.009L7.247,8.313C6.92,8.602,6.622,8.979,6.342,9.397H1.735C0.775,9.397,0,10.181,0,11.131
		v7.063c0,0.955,0.775,1.732,1.735,1.732h4.606c0.28,0.418,0.578,0.794,0.905,1.087l5.893,5.306c1.18,1.06,2.151,0.631,2.151-0.959
		v-7.166v-7.063V3.967C15.291,2.375,14.319,1.944,13.14,3.009"/>
	<path style="fill:#3298CB;" d="M20.795,6.798c-0.395-0.669-1.264-0.92-1.791-0.54L18.601,6.55
		c-0.516,0.366-0.637,1.122-0.282,1.716c2.364,3.945,2.364,8.848,0,12.789c-0.354,0.595-0.233,1.357,0.282,1.722l0.403,0.28
		c0.168,0.131,0.378,0.195,0.608,0.195c0.463,0,0.911-0.277,1.183-0.717C23.685,17.681,23.685,11.647,20.795,6.798"/>
	<path style="fill:#3298CB;" d="M23.38,29.331L23.38,29.331c-0.235,0-0.443-0.062-0.622-0.192l-0.66-0.457
		c-0.525-0.374-0.642-1.137-0.271-1.731c4.802-7.468,4.802-17.107,0-24.577c-0.37-0.594-0.254-1.349,0.261-1.724l0.671-0.466
		c0.524-0.375,1.366-0.15,1.759,0.466c5.479,8.514,5.479,19.513,0,28.033C24.257,29.081,23.82,29.331,23.38,29.331"/>
</g>
<g id="Layer_1">
</g>
</svg>
