<?xml version="1.0" encoding="iso-8859-1"?>
<!-- Generator: Adobe Illustrator 16.0.0, SVG Export Plug-In . SVG Version: 6.00 Build 0)  -->
<!DOCTYPE svg PUBLIC "-//W3C//DTD SVG 1.1//EN" "http://www.w3.org/Graphics/SVG/1.1/DTD/svg11.dtd">
<svg version="1.1" xmlns="http://www.w3.org/2000/svg" xmlns:xlink="http://www.w3.org/1999/xlink" x="0px" y="0px"
	 width="36.786px" height="42.74px" viewBox="0 0 36.786 42.74" style="enable-background:new 0 0 36.786 42.74;"
	 xml:space="preserve">
<g id="flag_x5F_unselected">
	<path style="fill:none;stroke:#929497;stroke-width:0.5111;" d="M9.223,41.207L0.315,7.972C0.068,7.057,0.611,6.116,1.532,5.869
		c0.916-0.248,1.856,0.296,2.104,1.216l8.908,33.235c0.247,0.914-0.296,1.858-1.215,2.105C10.408,42.672,9.47,42.124,9.223,41.207z"
		/>
	<path style="fill:none;stroke:#929497;stroke-width:0.5111;" d="M34.858,12.02c-0.493-1.83-0.95-3.529-1.438-5.363
		c-0.49-1.832-1.019-3.792-1.648-6.147c-1.711,1.822-3.486,2.603-5.219,3.034c-1.735,0.435-3.433,0.497-5.109,0.478
		c-1.68-0.018-3.337-0.127-5.015-0.144c-1.678-0.017-3.378,0.04-5.113,0.473c-1.73,0.433-3.503,1.212-5.217,3.036
		c0.632,2.355,1.159,4.318,1.647,6.149c0.491,1.832,0.946,3.533,1.437,5.362c0.494,1.833,1.016,3.797,1.648,6.151
		c1.713-1.825,3.484-2.603,5.219-3.035c1.73-0.434,3.429-0.495,5.106-0.48c1.681,0.016,3.339,0.129,5.018,0.149
		c1.673,0.021,3.381-0.045,5.113-0.478c1.73-0.436,3.501-1.213,5.215-3.031C35.875,15.815,35.348,13.853,34.858,12.02z"/>
</g>
<g id="Layer_1">
</g>
</svg>
