<?xml version="1.0" encoding="iso-8859-1"?>
<!-- Generator: Adobe Illustrator 16.0.0, SVG Export Plug-In . SVG Version: 6.00 Build 0)  -->
<!DOCTYPE svg PUBLIC "-//W3C//DTD SVG 1.1//EN" "http://www.w3.org/Graphics/SVG/1.1/DTD/svg11.dtd">
<svg version="1.1" xmlns="http://www.w3.org/2000/svg" xmlns:xlink="http://www.w3.org/1999/xlink" x="0px" y="0px"
	 width="53.163px" height="61.768px" viewBox="0 0 53.163 61.768" style="enable-background:new 0 0 53.163 61.768;"
	 xml:space="preserve">
<g id="flag_x5F_unselected">
	<path style="fill:none;stroke:#929497;stroke-width:0.7386;" d="M13.329,59.552L0.456,11.521C0.098,10.199,0.883,8.84,2.214,8.483
		c1.324-0.358,2.683,0.428,3.04,1.757l12.873,48.03c0.356,1.32-0.428,2.686-1.756,3.042C15.041,61.669,13.686,60.877,13.329,59.552z
		"/>
	<path style="fill:none;stroke:#929497;stroke-width:0.7386;" d="M50.377,17.371c-0.713-2.645-1.373-5.1-2.079-7.75
		c-0.708-2.647-1.472-5.48-2.382-8.883c-2.473,2.632-5.038,3.761-7.542,4.385C35.866,5.75,33.413,5.84,30.99,5.813
		c-2.428-0.026-4.824-0.184-7.248-0.208c-2.424-0.025-4.882,0.058-7.389,0.684c-2.501,0.626-5.062,1.752-7.539,4.387
		c0.913,3.403,1.675,6.241,2.381,8.887c0.71,2.647,1.367,5.105,2.077,7.75c0.713,2.648,1.468,5.486,2.382,8.89
		c2.476-2.638,5.035-3.762,7.542-4.386c2.5-0.626,4.956-0.715,7.38-0.694c2.43,0.022,4.825,0.187,7.252,0.215
		c2.417,0.03,4.886-0.065,7.39-0.691c2.5-0.629,5.06-1.753,7.536-4.381C51.847,22.856,51.084,20.021,50.377,17.371z"/>
</g>
<g id="Layer_1">
</g>
</svg>
