<?xml version="1.0" encoding="iso-8859-1"?>
<!-- Generator: Adobe Illustrator 16.0.0, SVG Export Plug-In . SVG Version: 6.00 Build 0)  -->
<!DOCTYPE svg PUBLIC "-//W3C//DTD SVG 1.1//EN" "http://www.w3.org/Graphics/SVG/1.1/DTD/svg11.dtd">
<svg version="1.1" xmlns="http://www.w3.org/2000/svg" xmlns:xlink="http://www.w3.org/1999/xlink" x="0px" y="0px"
	 width="19.034px" height="19.503px" viewBox="0 0 19.034 19.503" style="enable-background:new 0 0 19.034 19.503;"
	 xml:space="preserve">
<g id="sound_x5F_upstate_x5F_icn">
	<path style="fill:#3298CB;" d="M8.737,2L4.819,5.527C4.601,5.719,4.403,5.97,4.217,6.248H1.154C0.516,6.248,0,6.77,0,7.401v4.696
		c0,0.635,0.516,1.152,1.154,1.152h3.063c0.187,0.277,0.384,0.527,0.602,0.723L8.737,17.5c0.785,0.705,1.431,0.42,1.431-0.638
		v-4.765V7.401V2.638C10.167,1.58,9.521,1.292,8.737,2"/>
	<path style="fill:#3298CB;" d="M13.827,4.521c-0.263-0.445-0.841-0.612-1.191-0.359l-0.268,0.194
		c-0.343,0.243-0.424,0.746-0.188,1.141c1.571,2.624,1.571,5.883,0,8.503c-0.236,0.396-0.155,0.903,0.188,1.146l0.268,0.186
		c0.112,0.088,0.252,0.13,0.405,0.13c0.308,0,0.605-0.184,0.786-0.477C15.748,11.756,15.748,7.745,13.827,4.521"/>
	<path style="fill:#3298CB;" d="M15.546,19.503L15.546,19.503c-0.156,0-0.295-0.042-0.414-0.128l-0.438-0.304
		c-0.35-0.249-0.427-0.756-0.181-1.151c3.192-4.966,3.192-11.375,0-16.342c-0.246-0.395-0.169-0.897,0.174-1.146l0.445-0.31
		c0.349-0.25,0.909-0.1,1.17,0.31c3.644,5.661,3.644,12.975,0,18.64C16.129,19.337,15.839,19.503,15.546,19.503"/>
</g>
<g id="Layer_1">
</g>
</svg>
