<?xml version="1.0" encoding="iso-8859-1"?>
<!-- Generator: Adobe Illustrator 16.0.0, SVG Export Plug-In . SVG Version: 6.00 Build 0)  -->
<!DOCTYPE svg PUBLIC "-//W3C//DTD SVG 1.1//EN" "http://www.w3.org/Graphics/SVG/1.1/DTD/svg11.dtd">
<svg version="1.1" xmlns="http://www.w3.org/2000/svg" xmlns:xlink="http://www.w3.org/1999/xlink" x="0px" y="0px" width="41.83px"
	 height="41.834px" viewBox="0 0 41.83 41.834" style="enable-background:new 0 0 41.83 41.834;" xml:space="preserve">
<g id="sound_x5F_upstate_x5F_btn">
	<path style="fill:#FFFFFF;" d="M41.33,20.918c0,11.276-9.136,20.416-20.418,20.416C9.641,41.334,0.5,32.194,0.5,20.918
		C0.5,9.64,9.641,0.5,20.912,0.5C32.194,0.5,41.33,9.64,41.33,20.918"/>
	<path style="fill:#3298CB;" d="M18.433,10.575l-5.186,4.668c-0.288,0.254-0.55,0.586-0.797,0.954H8.396
		c-0.845,0-1.527,0.69-1.527,1.526v6.216c0,0.84,0.683,1.524,1.527,1.524h4.054c0.247,0.367,0.509,0.698,0.797,0.956l5.186,4.67
		c1.038,0.932,1.894,0.555,1.894-0.845v-6.306v-6.216v-6.305C20.326,10.018,19.471,9.638,18.433,10.575"/>
	<path style="fill:#3298CB;" d="M25.17,13.91c-0.348-0.589-1.112-0.81-1.576-0.476l-0.355,0.257c-0.453,0.322-0.56,0.987-0.248,1.51
		c2.081,3.472,2.081,7.786,0,11.255c-0.312,0.523-0.205,1.194,0.248,1.516l0.355,0.246c0.147,0.115,0.332,0.172,0.535,0.172
		c0.407,0,0.802-0.244,1.041-0.631C27.713,23.487,27.713,18.177,25.17,13.91"/>
	<path style="fill:#3298CB;" d="M27.444,33.74L27.444,33.74c-0.207,0-0.39-0.056-0.547-0.17l-0.581-0.402
		c-0.463-0.329-0.564-1-0.239-1.523c4.226-6.572,4.226-15.055,0-21.629c-0.325-0.522-0.224-1.188,0.229-1.518l0.591-0.41
		c0.461-0.331,1.202-0.132,1.548,0.41c4.822,7.493,4.822,17.173,0,24.67C28.217,33.52,27.832,33.74,27.444,33.74"/>
</g>
<g id="Layer_1">
</g>
</svg>
