<?xml version="1.0" encoding="iso-8859-1"?>
<!-- Generator: Adobe Illustrator 16.0.0, SVG Export Plug-In . SVG Version: 6.00 Build 0)  -->
<!DOCTYPE svg PUBLIC "-//W3C//DTD SVG 1.1//EN" "http://www.w3.org/Graphics/SVG/1.1/DTD/svg11.dtd">
<svg version="1.1" xmlns="http://www.w3.org/2000/svg" xmlns:xlink="http://www.w3.org/1999/xlink" x="0px" y="0px"
	 width="41.828px" height="41.834px" viewBox="0 0 41.828 41.834" style="enable-background:new 0 0 41.828 41.834;"
	 xml:space="preserve">
<g id="info_x5F_upstate_x5F_btn">
	<path style="fill:#FFFFFF;" d="M41.328,20.918c0,11.276-9.135,20.416-20.417,20.416C9.64,41.334,0.5,32.194,0.5,20.918
		C0.5,9.64,9.64,0.5,20.911,0.5C32.193,0.5,41.328,9.64,41.328,20.918"/>
	<path style="fill:#3298CB;" d="M20.85,5.574c1.789,0,3.23,1.447,3.23,3.237s-1.441,3.231-3.23,3.231
		c-1.798,0-3.241-1.441-3.241-3.231S19.052,5.574,20.85,5.574"/>
	<path style="fill:#3298CB;" d="M22.877,34.665c-0.858,0.628-1.83,0.831-2.89,0.659c-0.727-0.133-1.377-0.44-1.88-0.918
		c-0.533-0.494-0.874-1.116-1.02-1.868c-0.158-0.748-0.066-1.997,0.251-3.72l1.505-8.551c0.149-0.853,0.192-1.434,0.117-1.755
		c-0.068-0.311-0.225-0.596-0.49-0.837c-0.106-0.131-0.408-0.233-0.868-0.312c-0.158-0.033-0.572,0-1.229,0.095l-0.115-0.733
		l6.142-1.328l0.768,0.142l-2.6,14.688c-0.202,1.185-0.194,1.975,0.047,2.427c0.244,0.428,0.633,0.703,1.174,0.798
		c0.418,0.082,0.797-0.045,1.172-0.35c0.363-0.299,0.73-1.01,1.1-2.111l0.797,0.145C24.404,32.872,23.754,34.048,22.877,34.665"/>
</g>
<g id="Layer_1">
</g>
</svg>
