<?xml version="1.0" encoding="iso-8859-1"?>
<!-- Generator: Adobe Illustrator 16.0.0, SVG Export Plug-In . SVG Version: 6.00 Build 0)  -->
<!DOCTYPE svg PUBLIC "-//W3C//DTD SVG 1.1//EN" "http://www.w3.org/Graphics/SVG/1.1/DTD/svg11.dtd">
<svg version="1.1" xmlns="http://www.w3.org/2000/svg" xmlns:xlink="http://www.w3.org/1999/xlink" x="0px" y="0px"
	 width="29.616px" height="34.438px" viewBox="0 0 29.616 34.438" style="enable-background:new 0 0 29.616 34.438;"
	 xml:space="preserve">
<g id="flag_x5F_selected">
	<path style="fill:#FAAF40;stroke:#F6921E;stroke-width:0.5111;" d="M7.449,33.157L0.304,6.496C0.105,5.762,0.541,5.008,1.279,4.809
		c0.735-0.198,1.489,0.237,1.688,0.976l7.145,26.661c0.198,0.733-0.237,1.491-0.975,1.689C8.399,34.332,7.647,33.893,7.449,33.157z"
		/>
	<path style="fill:#FAAF40;stroke:#F6921E;stroke-width:0.5111;" d="M28.014,9.743c-0.395-1.468-0.762-2.831-1.154-4.303
		c-0.393-1.469-0.816-3.042-1.322-4.931c-1.372,1.461-2.796,2.088-4.187,2.434c-1.392,0.35-2.754,0.398-4.099,0.384
		c-1.347-0.015-2.677-0.102-4.022-0.115c-1.346-0.014-2.711,0.032-4.102,0.379C7.74,3.939,6.318,4.564,4.943,6.027
		c0.507,1.889,0.93,3.464,1.322,4.933c0.394,1.47,0.759,2.834,1.152,4.302c0.396,1.47,0.815,3.045,1.322,4.935
		c1.374-1.465,2.795-2.089,4.187-2.436c1.388-0.348,2.751-0.397,4.098-0.385c1.349,0.013,2.678,0.103,4.024,0.12
		c1.343,0.017,2.712-0.036,4.102-0.384c1.388-0.349,2.809-0.973,4.184-2.432C28.83,12.788,28.406,11.213,28.014,9.743z"/>
</g>
<g id="Layer_1">
</g>
</svg>
